<svg width="18" height="18" viewBox="0 0 18 18" fill="none" xmlns="http://www.w3.org/2000/svg">
    <path d="M16.9776 9.14602L9.98724 15.7898C8.9118 16.8119 7.52909 17.25 6.14639 17.25C4.76368 17.25 3.38098 16.7389 2.30554 15.7898C0.231486 13.8186 0.231486 10.5332 2.30554 8.56195L9.3727 1.84513C10.0641 1.18805 11.0627 0.75 12.0613 0.75C13.0599 0.75 14.0585 1.11504 14.7499 1.84513C16.2862 3.30531 16.2862 5.56858 14.7499 7.02876L7.68273 13.7456C6.76092 14.6217 5.3014 14.6217 4.45642 13.7456C4.07233 13.3805 3.84188 12.7965 3.84188 12.2124C3.84188 11.6283 4.07233 11.0442 4.53323 10.6792L11.0627 4.47345C11.3699 4.18142 11.8308 4.18142 12.1381 4.47345C12.4454 4.76549 12.4454 5.20354 12.1381 5.49557L5.60867 11.7013C5.45504 11.8473 5.37822 11.9934 5.37822 12.2124C5.37822 12.4314 5.45504 12.5774 5.60867 12.7235C5.91594 13.0155 6.37684 13.0155 6.68411 12.7235L13.7513 6.00664C14.6731 5.13053 14.6731 3.74336 13.7513 2.94027C12.9063 2.13717 11.3699 2.13717 10.525 2.94027L3.4578 9.65708C1.92146 11.1173 1.92146 13.3805 3.4578 14.8407C4.99414 16.3009 7.37546 16.3009 8.9118 14.8407L15.979 8.12389C16.2862 7.83186 16.7471 7.83186 17.0544 8.12389C17.3617 8.41593 17.2848 8.85398 16.9776 9.14602Z" fill="#4B4B4B"/>
</svg>
