<svg viewBox="0 0 40 40" fill="none" xmlns="http://www.w3.org/2000/svg">
<path d="M34.5005 40C33.2279 40.0001 31.9947 39.5589 31.0109 38.7516C30.0272 37.9443 29.3538 36.8209 29.1056 35.5727C28.8574 34.3246 29.0497 33.029 29.6498 31.9067C30.2498 30.7845 31.2204 29.905 32.3962 29.4182C33.5721 28.9315 34.8803 28.8675 36.098 29.2373C37.3157 29.607 38.3675 30.3876 39.0741 31.4459C39.7808 32.5043 40.0985 33.775 39.9733 35.0414C39.848 36.3078 39.2875 37.4916 38.3872 38.391C37.8777 38.9025 37.2719 39.3081 36.6048 39.5843C35.9377 39.8604 35.2225 40.0017 34.5005 40Z" fill="#6BB964"/>
<path d="M5.50103 11C4.22846 11.0002 2.99519 10.5592 2.01138 9.75199C1.02758 8.94481 0.354109 7.82145 0.105761 6.57335C-0.142588 5.32525 0.0495489 4.02965 0.649426 2.90734C1.2493 1.78503 2.2198 0.905477 3.39552 0.41855C4.57125 -0.0683758 5.87944 -0.132535 7.09717 0.237012C8.3149 0.606559 9.36679 1.38694 10.0736 2.44516C10.7804 3.50339 11.0984 4.77397 10.9734 6.04038C10.8483 7.30679 10.288 8.49066 9.38793 9.39023C8.87842 9.9019 8.27261 10.3076 7.60548 10.5839C6.93835 10.8602 6.22311 11.0016 5.50103 11Z" fill="#6BB964"/>
<path d="M34.4983 11C33.2258 10.9996 31.9928 10.558 31.0094 9.75032C30.026 8.94269 29.353 7.81904 29.1053 6.57085C28.8575 5.32266 29.0502 4.02717 29.6506 2.90516C30.251 1.78314 31.2218 0.904034 32.3977 0.417632C33.5737 -0.068771 34.8819 -0.132367 36.0994 0.237689C37.3169 0.607746 38.3685 1.38855 39.0749 2.44705C39.7812 3.50554 40.0987 4.77623 39.9732 6.04256C39.8476 7.3089 39.2869 8.49252 38.3864 9.39173C37.8767 9.90336 37.2707 10.3089 36.6033 10.5849C35.936 10.861 35.2205 11.002 34.4983 11Z" fill="#6BB964"/>
<path d="M5.34425 39.9998C4.28733 40.0004 3.25399 39.6874 2.37503 39.1004C1.49608 38.5134 0.811018 37.6789 0.406564 36.7024C0.00210922 35.7259 -0.10356 34.6514 0.102937 33.6148C0.309434 32.5783 0.818812 31.6263 1.56659 30.8793C1.7965 30.6509 2.04859 30.446 2.31912 30.2675C2.41025 30.2039 2.49451 30.1534 2.58143 30.1005C2.77925 29.9869 2.97628 29.8835 3.16014 29.7991C3.26023 29.7544 3.36298 29.7081 3.47129 29.6668C3.68426 29.5892 3.90178 29.5248 4.12264 29.4739C4.1715 29.4606 4.21458 29.4491 4.25841 29.4366C4.28586 29.4292 4.3123 29.4201 4.3403 29.4134L5.52971 29.3324C5.6805 29.339 5.84189 29.358 6.01412 29.3803L6.08201 29.3896C6.12241 29.3945 6.17707 29.3987 6.23178 29.4018L6.27982 29.4052L6.33425 29.416H6.38152C6.46843 29.4193 6.55534 29.4209 6.64141 29.4209C8.73162 29.3922 10.725 28.535 12.1835 27.0375C13.642 25.54 14.4464 23.5247 14.4199 21.4344L14.4183 21.3741L14.407 21.311C14.3974 21.254 14.3913 21.1966 14.3888 21.1389C14.3837 21.0702 14.3779 21.0023 14.3695 20.9336L14.3563 20.8136C14.3447 20.711 14.3333 20.6107 14.3264 20.5081L14.4176 19.3148C14.4234 19.2848 14.4342 19.2576 14.4424 19.2286L14.4638 19.155C14.5151 18.9267 14.5816 18.7021 14.6627 18.4827C14.7003 18.3765 14.7443 18.2726 14.7942 18.1715C14.8862 17.9684 14.9896 17.7706 15.1038 17.579C15.1542 17.4946 15.2031 17.4093 15.2612 17.3265C15.4424 17.0549 15.6485 16.8008 15.8769 16.5675C16.3729 16.0708 16.9619 15.6767 17.6103 15.4077C18.2587 15.1388 18.9537 15.0002 19.6556 15C20.3576 14.9998 21.0527 15.1379 21.7012 15.4064C22.3498 15.6749 22.939 16.0686 23.4353 16.565C23.9317 17.0614 24.3253 17.6507 24.5938 18.2993C24.8623 18.9478 25.0003 19.643 25 20.3449C24.9997 21.0468 24.8611 21.7418 24.5921 22.3902C24.3231 23.0385 23.9289 23.6275 23.4322 24.1235C23.2011 24.3512 22.9489 24.5563 22.6789 24.7361C22.5901 24.7965 22.5059 24.8469 22.4214 24.8968C22.2342 25.0089 22.0411 25.1109 21.8429 25.2022C21.7386 25.2492 21.6343 25.2973 21.5333 25.3345C21.3216 25.4131 21.1048 25.4772 20.8844 25.5266L20.7563 25.5622C20.7272 25.5704 20.6989 25.5795 20.6701 25.587L19.4692 25.6723C19.3284 25.6664 19.181 25.6474 19.0246 25.6275L18.9179 25.6143C18.8822 25.6084 18.826 25.6044 18.7697 25.6011L18.7275 25.597L18.6662 25.5852H18.6181C18.5304 25.582 18.4443 25.5812 18.3574 25.5812C16.267 25.6101 14.2736 26.4676 12.8152 27.9655C11.3568 29.4634 10.5527 31.479 10.5797 33.5694L10.5812 33.6299L10.5926 33.6902C10.6018 33.7475 10.6079 33.8052 10.6111 33.8631C10.6159 33.9319 10.6219 33.9998 10.6301 34.0677C10.6325 34.1082 10.6407 34.1818 10.6499 34.2539C10.661 34.3346 10.6676 34.4158 10.6697 34.4972V34.5262L10.5836 35.67C10.5781 35.694 10.5398 35.8258 10.529 35.867C10.4776 36.0914 10.4121 36.3123 10.333 36.5284C10.2956 36.6312 10.253 36.732 10.2054 36.8304C10.1127 37.0333 10.0118 37.2278 9.89741 37.4257C9.84695 37.5066 9.78753 37.6018 9.72705 37.693C9.24388 38.4094 8.59082 38.995 7.82618 39.3975C7.06154 39.8001 6.20913 40.007 5.34504 39.9998H5.34425Z" fill="#6BB964"/>
<path d="M20.3474 40C19.2905 40.0008 18.2571 39.6882 17.3779 39.1017C16.4987 38.5152 15.8132 37.6811 15.4081 36.705C15.003 35.7289 14.8965 34.6546 15.1021 33.618C15.3076 32.5813 15.8161 31.629 16.563 30.8813C16.7962 30.6519 17.0505 30.4449 17.3223 30.263C17.4016 30.2092 17.4869 30.157 17.5763 30.1056C17.7642 29.9927 17.9582 29.8901 18.1575 29.7985C18.2618 29.7512 18.3638 29.7042 18.4674 29.6653C18.6776 29.5885 18.8927 29.5259 19.1113 29.4781C19.1113 29.4781 19.2993 29.4235 19.3234 29.4177L20.5319 29.3292C20.6745 29.3357 20.8283 29.3564 20.9892 29.3771L21.0785 29.3888C21.1379 29.3945 21.1876 29.3995 21.2375 29.4003C21.2573 29.4019 21.2771 29.4019 21.2962 29.4036L21.3342 29.4086L21.3847 29.4137C21.4732 29.416 21.5627 29.4185 21.6513 29.4185C23.7403 29.3881 25.7319 28.5299 27.1887 27.0324C28.6455 25.5349 29.4484 23.5205 29.4211 21.4316L29.4137 21.1825L29.3915 21.155C29.3905 21.1467 29.3905 21.1368 29.3897 21.1276C29.3865 21.0697 29.3831 21.011 29.3773 20.9522L29.3574 20.7809C29.3466 20.6866 29.3342 20.5939 29.3307 20.4994L29.4137 19.3429C29.4203 19.3147 29.4618 19.1715 29.4716 19.1285C29.5233 18.9053 29.5886 18.6855 29.6671 18.4703C29.7051 18.3627 29.7516 18.2642 29.7987 18.1608C29.8913 17.9608 29.9941 17.7657 30.1067 17.5763L30.13 17.5381C30.1712 17.4678 30.2108 17.3983 30.2597 17.3304C30.7012 16.6819 31.2805 16.1389 31.9562 15.7401C32.6319 15.3412 33.3873 15.0965 34.1685 15.0233C34.9496 14.95 35.7374 15.0502 36.4754 15.3165C37.2134 15.5828 37.8836 16.0087 38.438 16.5638C39.4383 17.5677 40 18.927 40 20.3442C40 21.7613 39.4383 23.1206 38.438 24.1245C38.2046 24.351 37.9513 24.556 37.6811 24.737C37.6206 24.7785 37.5627 24.8132 37.5049 24.8479L37.4113 24.9059C37.2289 25.0138 37.0409 25.1122 36.8483 25.2007C36.7413 25.2487 36.6406 25.2951 36.5344 25.3347C36.321 25.4126 36.1029 25.4767 35.8814 25.5269C35.8293 25.5392 35.787 25.5525 35.7455 25.5649C35.7165 25.5723 35.6893 25.5814 35.661 25.588L34.4731 25.6701C34.2993 25.6627 34.1112 25.637 33.9292 25.613C33.8671 25.6055 33.819 25.6031 33.7717 25.6005C33.7537 25.5997 33.7355 25.5997 33.7173 25.5972L33.6161 25.5864C33.5276 25.583 33.4399 25.5814 33.3522 25.5814C32.3174 25.5957 31.2955 25.8136 30.345 26.2229C29.3944 26.6321 28.5338 27.2245 27.8123 27.9664C27.0907 28.7082 26.5224 29.5849 26.1398 30.5464C25.7572 31.5079 25.5677 32.5354 25.5823 33.5701L25.5839 33.6298L25.5955 33.6886C25.6052 33.7491 25.6113 33.8102 25.6137 33.8714C25.6177 33.9343 25.6227 33.9957 25.6293 34.0561C25.6335 34.1066 25.6409 34.1711 25.6475 34.234C25.6584 34.3243 25.6692 34.4153 25.6716 34.5056L25.5839 35.6785C25.5773 35.7041 25.5316 35.8624 25.5316 35.8624C25.4806 36.0898 25.4151 36.3138 25.3355 36.5329C25.2999 36.629 25.2576 36.7218 25.2145 36.8186L25.1997 36.8525C25.1102 37.0459 25.0104 37.2344 24.9006 37.4171C24.8462 37.5082 24.7923 37.5975 24.7353 37.6821C24.5526 37.9529 24.3458 38.2067 24.1176 38.4403C23.6235 38.9367 23.0359 39.3302 22.3888 39.5979C21.7416 39.8656 21.0478 40.0023 20.3474 40Z" fill="#6BB964"/>
<path d="M5.37449 24.9996C4.2305 25.0134 3.11266 24.6568 2.18737 23.9829C1.26208 23.3091 0.578813 22.3541 0.239274 21.26C-0.100264 20.1659 -0.0779188 18.9912 0.302984 17.9108C0.683886 16.8305 1.40298 15.9022 2.35323 15.2641C2.43392 15.2096 2.52493 15.154 2.61594 15.0994C2.80186 14.9889 2.99339 14.888 3.18974 14.7973C3.29286 14.75 3.39548 14.7038 3.50444 14.6633C3.71287 14.5873 3.92603 14.525 4.14257 14.4769L4.27818 14.4389C4.30322 14.4314 4.32721 14.4231 4.35201 14.4173L5.5597 14.3304C5.71664 14.337 5.88628 14.3593 6.06383 14.3834L6.10102 14.3884C6.16301 14.3948 6.211 14.3975 6.25983 14.3999C6.27697 14.4007 6.29438 14.4007 6.31178 14.4032L6.36377 14.4123L6.41257 14.414C6.50198 14.4165 6.59035 14.4181 6.67875 14.4181C8.76486 14.3882 10.7537 13.5299 12.2081 12.0318C13.6625 10.5338 14.4633 8.5187 14.4344 6.42956L14.4329 6.37076L14.4213 6.31279C14.4111 6.24781 14.405 6.18225 14.4031 6.1165C14.3999 6.06274 14.3965 6.00884 14.3907 5.9527L14.3724 5.78798C14.3584 5.6897 14.3493 5.59076 14.3453 5.49155L14.4255 4.36905L14.4329 4.34332V4.321C14.4395 4.29524 14.4833 4.14623 14.4833 4.14623C14.5345 3.91636 14.6 3.68991 14.6793 3.46819C14.7172 3.36716 14.7645 3.26636 14.8122 3.1619C14.9034 2.9616 15.0055 2.7665 15.1182 2.57752L15.1364 2.54691C15.1826 2.46987 15.2282 2.39286 15.2802 2.31585C15.4597 2.04761 15.6636 1.79658 15.8893 1.56598C16.3848 1.06963 16.973 0.675871 17.6204 0.407181C18.2678 0.13849 18.9617 0.000127906 19.6625 8.86391e-08C20.3633 -0.000127728 21.0573 0.137979 21.7048 0.406434C22.3523 0.674888 22.9406 1.06843 23.4363 1.5646C23.9319 2.06077 24.3251 2.64985 24.5934 3.29819C24.8617 3.94653 24.9999 4.64145 25 5.34326C25.0001 6.04508 24.8622 6.74005 24.5942 7.38849C24.3261 8.03693 23.9331 8.62613 23.4377 9.12248C23.2072 9.3495 22.9556 9.55383 22.6861 9.73262C22.6043 9.7906 22.5339 9.83196 22.4611 9.87498L22.4215 9.89812C22.2369 10.0088 22.0465 10.1097 21.8512 10.2003C21.7435 10.25 21.6428 10.2956 21.5404 10.3335C21.3274 10.412 21.1095 10.4764 20.888 10.5265C20.8377 10.5389 20.7923 10.5521 20.7469 10.5645C20.7195 10.5719 20.6915 10.581 20.6633 10.5877L19.4804 10.6706C19.3308 10.663 19.1704 10.6432 19.0024 10.6217L18.9299 10.6126C18.8753 10.6059 18.8248 10.6035 18.7761 10.6002C18.7562 10.6 18.7364 10.5986 18.7167 10.596L18.6769 10.5909L18.6249 10.587C18.5365 10.5837 18.4487 10.5818 18.3603 10.5818C16.2737 10.6113 14.2843 11.4695 12.8293 12.9676C11.3744 14.4656 10.573 16.481 10.6014 18.5706L10.603 18.6302L10.6136 18.689C10.6242 18.7492 10.6306 18.8101 10.6328 18.8711C10.6368 18.9339 10.6418 18.9953 10.6484 19.0582C10.6534 19.1078 10.6608 19.1715 10.6684 19.2347C10.6782 19.3239 10.6898 19.4117 10.6914 19.5003L10.6062 20.6651C10.5998 20.6948 10.5898 20.7254 10.5806 20.757L10.5508 20.8612C10.501 21.0887 10.4364 21.3127 10.3574 21.5317C10.3194 21.6328 10.2706 21.737 10.2218 21.844C10.1318 22.0412 10.0307 22.2333 9.91926 22.4192C9.86412 22.5119 9.81267 22.5989 9.75729 22.6809C9.57715 22.9516 9.37178 23.2047 9.14393 23.4366C8.64998 23.9337 8.0625 24.3278 7.41549 24.5961C6.76848 24.8644 6.07477 25.0015 5.37449 24.9996Z" fill="#6BB964"/>
</svg>
