<svg width="18" height="14" viewBox="0 0 18 14" fill="none" xmlns="http://www.w3.org/2000/svg">
<path fill-rule="evenodd" clip-rule="evenodd" d="M15 0.25H3C1.725 0.25 0.75 1.225 0.75 2.5V11.5C0.75 12.775 1.725 13.75 3 13.75H15C16.275 13.75 17.25 12.775 17.25 11.5V2.5C17.25 1.225 16.275 0.25 15 0.25ZM2.99922 1.75H14.9992C15.2992 1.75 15.5242 1.9 15.6742 2.2L8.99922 6.85L2.32422 2.2C2.47422 1.9 2.69922 1.75 2.99922 1.75ZM2.25 11.5C2.25 11.95 2.55 12.25 3 12.25H15C15.45 12.25 15.75 11.95 15.75 11.5V3.925L9.45 8.35C9.3 8.425 9.15 8.5 9 8.5C8.85 8.5 8.7 8.425 8.55 8.35L2.25 3.925V11.5Z" fill="currentColor"/>
</svg>
