<svg width="16" height="16" viewBox="0 0 16 16" fill="none" xmlns="http://www.w3.org/2000/svg">
<path fill-rule="evenodd" clip-rule="evenodd" d="M11.4018 10.5102L14.3847 13.5037C14.6498 13.7698 14.6498 14.1689 14.3847 14.435C14.2521 14.568 14.0532 14.6346 13.9207 14.6346C13.7881 14.6346 13.5892 14.568 13.4567 14.435L10.4738 11.4415C9.47945 12.1732 8.28629 12.6389 6.96055 12.6389C3.84507 12.6389 1.32617 10.111 1.32617 6.98448C1.32617 3.85793 3.84507 1.33008 6.96055 1.33008C10.076 1.33008 12.5949 3.85793 12.5949 6.98448C12.5949 8.31493 12.1309 9.57885 11.4018 10.5102ZM6.9605 2.66016C4.57417 2.66016 2.65186 4.58931 2.65186 6.98411C2.65186 9.37892 4.57417 11.3081 6.9605 11.3081C8.15366 11.3081 9.21425 10.8424 10.0097 10.0441C10.8051 9.24587 11.2691 8.18151 11.2691 6.98411C11.2691 4.58931 9.34682 2.66016 6.9605 2.66016Z" fill="#4B4B4B"/>
</svg>
