<svg width="14" height="16" viewBox="0 0 14 16" fill="none" xmlns="http://www.w3.org/2000/svg">
<path fill-rule="evenodd" clip-rule="evenodd" d="M3.25 4.25C3.25 2.15 4.9 0.5 7 0.5C9.1 0.5 10.75 2.15 10.75 4.25C10.75 6.35 9.1 8 7 8C4.9 8 3.25 6.35 3.25 4.25ZM13.75 13.25V14.75C13.75 15.2 13.45 15.5 13 15.5C12.55 15.5 12.25 15.2 12.25 14.75V13.25C12.25 11.975 11.275 11 10 11H4C2.725 11 1.75 11.975 1.75 13.25V14.75C1.75 15.2 1.45 15.5 1 15.5C0.55 15.5 0.25 15.2 0.25 14.75V13.25C0.25 11.15 1.9 9.5 4 9.5H10C12.1 9.5 13.75 11.15 13.75 13.25ZM7 6.5C5.725 6.5 4.75 5.525 4.75 4.25C4.75 2.975 5.725 2 7 2C8.275 2 9.25 2.975 9.25 4.25C9.25 5.525 8.275 6.5 7 6.5Z" fill="currentColor"/>
</svg>
